<svg xmlns="http://www.w3.org/2000/svg" width="560" height="380" viewBox="0 0 560 380" font-family="-apple-system,BHF,Segoe UI,Roboto,Helvetica,Arial,sans-serif">
<rect width="560" height="380" fill="white"/>
<text x="280.0" y="28.0" font-size="16" text-anchor="middle" fill="#222222" font-weight="600">Reranking on the 40 worst-retrieval rows (baseline P&lt;0.5)</text>
<line x1="55.0" y1="310.0" x2="540.0" y2="310.0" stroke="#dddddd" stroke-width="1"/><text x="47.0" y="314.0" font-size="11" text-anchor="end" fill="#666666" font-weight="400">0.0</text><line x1="55.0" y1="266.7" x2="540.0" y2="266.7" stroke="#dddddd" stroke-width="1"/><text x="47.0" y="270.7" font-size="11" text-anchor="end" fill="#666666" font-weight="400">0.1</text><line x1="55.0" y1="223.3" x2="540.0" y2="223.3" stroke="#dddddd" stroke-width="1"/><text x="47.0" y="227.3" font-size="11" text-anchor="end" fill="#666666" font-weight="400">0.2</text><line x1="55.0" y1="180.0" x2="540.0" y2="180.0" stroke="#dddddd" stroke-width="1"/><text x="47.0" y="184.0" font-size="11" text-anchor="end" fill="#666666" font-weight="400">0.3</text><line x1="55.0" y1="136.7" x2="540.0" y2="136.7" stroke="#dddddd" stroke-width="1"/><text x="47.0" y="140.7" font-size="11" text-anchor="end" fill="#666666" font-weight="400">0.4</text><line x1="55.0" y1="93.3" x2="540.0" y2="93.3" stroke="#dddddd" stroke-width="1"/><text x="47.0" y="97.3" font-size="11" text-anchor="end" fill="#666666" font-weight="400">0.5</text><line x1="55.0" y1="50.0" x2="540.0" y2="50.0" stroke="#dddddd" stroke-width="1"/><text x="47.0" y="54.0" font-size="11" text-anchor="end" fill="#666666" font-weight="400">0.6</text><rect x="106.9" y="255.0" width="63.1" height="55.0" fill="#666666" stroke="none" stroke-width="1" rx="2"/><text x="138.4" y="250.0" font-size="11" text-anchor="middle" fill="#222222" font-weight="500">0.127</text><rect x="182.6" y="79.9" width="63.1" height="230.1" fill="#185FA5" stroke="none" stroke-width="1" rx="2"/><text x="214.1" y="74.9" font-size="11" text-anchor="middle" fill="#222222" font-weight="500">0.531</text><text x="176.2" y="328.0" font-size="12" text-anchor="middle" fill="#222222" font-weight="400">Ctx precision</text><rect x="349.4" y="229.8" width="63.1" height="80.2" fill="#666666" stroke="none" stroke-width="1" rx="2"/><text x="380.9" y="224.8" font-size="11" text-anchor="middle" fill="#222222" font-weight="500">0.185</text><rect x="425.1" y="165.7" width="63.1" height="144.3" fill="#185FA5" stroke="none" stroke-width="1" rx="2"/><text x="456.6" y="160.7" font-size="11" text-anchor="middle" fill="#222222" font-weight="500">0.333</text><text x="418.8" y="328.0" font-size="12" text-anchor="middle" fill="#222222" font-weight="400">Answer correctness</text><rect x="55.0" y="354.0" width="12.0" height="10.0" fill="#666666" stroke="none" stroke-width="1" rx="0"/><text x="73.0" y="363.0" font-size="10" text-anchor="start" fill="#222222" font-weight="400">baseline (top-4 dense)</text><rect x="235.0" y="354.0" width="12.0" height="10.0" fill="#185FA5" stroke="none" stroke-width="1" rx="0"/><text x="253.0" y="363.0" font-size="10" text-anchor="start" fill="#222222" font-weight="400">rerank (top-20→cross-encoder→4)</text></svg>
