<svg xmlns="http://www.w3.org/2000/svg" width="720" height="400" viewBox="0 0 720 400" font-family="-apple-system,BHF,Segoe UI,Roboto,Helvetica,Arial,sans-serif">
<rect width="720" height="400" fill="white"/>
<text x="360.0" y="28.0" font-size="16" text-anchor="middle" fill="#222222" font-weight="600">Basic vs Advanced comparison (llama3:8b, n=195)</text>
<line x1="55.0" y1="320.0" x2="700.0" y2="320.0" stroke="#dddddd" stroke-width="1"/><text x="47.0" y="324.0" font-size="11" text-anchor="end" fill="#666666" font-weight="400">0.0</text><line x1="55.0" y1="266.0" x2="700.0" y2="266.0" stroke="#dddddd" stroke-width="1"/><text x="47.0" y="270.0" font-size="11" text-anchor="end" fill="#666666" font-weight="400">0.2</text><line x1="55.0" y1="212.0" x2="700.0" y2="212.0" stroke="#dddddd" stroke-width="1"/><text x="47.0" y="216.0" font-size="11" text-anchor="end" fill="#666666" font-weight="400">0.4</text><line x1="55.0" y1="158.0" x2="700.0" y2="158.0" stroke="#dddddd" stroke-width="1"/><text x="47.0" y="162.0" font-size="11" text-anchor="end" fill="#666666" font-weight="400">0.6</text><line x1="55.0" y1="104.0" x2="700.0" y2="104.0" stroke="#dddddd" stroke-width="1"/><text x="47.0" y="108.0" font-size="11" text-anchor="end" fill="#666666" font-weight="400">0.8</text><line x1="55.0" y1="50.0" x2="700.0" y2="50.0" stroke="#dddddd" stroke-width="1"/><text x="47.0" y="54.0" font-size="11" text-anchor="end" fill="#666666" font-weight="400">1.0</text><rect x="77.1" y="119.9" width="35.5" height="200.1" fill="#185FA5" stroke="none" stroke-width="1" rx="2"/><text x="94.8" y="114.9" font-size="9" text-anchor="middle" fill="#222222" font-weight="400">0.74</text><rect x="117.9" y="133.7" width="35.5" height="186.3" fill="#D85A30" stroke="none" stroke-width="1" rx="2"/><text x="135.6" y="128.7" font-size="9" text-anchor="middle" fill="#222222" font-weight="400">0.69</text><rect x="158.7" y="198.8" width="35.5" height="121.2" fill="#534AB7" stroke="none" stroke-width="1" rx="2"/><text x="176.4" y="193.8" font-size="9" text-anchor="middle" fill="#222222" font-weight="400">0.45</text><text x="135.6" y="338.0" font-size="11" text-anchor="middle" fill="#222222" font-weight="400">Ctx precision</text><rect x="238.3" y="105.1" width="35.5" height="214.9" fill="#185FA5" stroke="none" stroke-width="1" rx="2"/><text x="256.1" y="100.1" font-size="9" text-anchor="middle" fill="#222222" font-weight="400">0.80</text><rect x="279.1" y="138.8" width="35.5" height="181.2" fill="#D85A30" stroke="none" stroke-width="1" rx="2"/><text x="296.9" y="133.8" font-size="9" text-anchor="middle" fill="#222222" font-weight="400">0.67</text><rect x="319.9" y="144.5" width="35.5" height="175.5" fill="#534AB7" stroke="none" stroke-width="1" rx="2"/><text x="337.7" y="139.5" font-size="9" text-anchor="middle" fill="#222222" font-weight="400">0.65</text><text x="296.9" y="338.0" font-size="11" text-anchor="middle" fill="#222222" font-weight="400">Ctx recall</text><rect x="399.6" y="66.5" width="35.5" height="253.5" fill="#185FA5" stroke="none" stroke-width="1" rx="2"/><text x="417.3" y="61.5" font-size="9" text-anchor="middle" fill="#222222" font-weight="400">0.94</text><rect x="440.4" y="64.0" width="35.5" height="256.0" fill="#D85A30" stroke="none" stroke-width="1" rx="2"/><text x="458.1" y="59.0" font-size="9" text-anchor="middle" fill="#222222" font-weight="400">0.95</text><rect x="481.2" y="74.3" width="35.5" height="245.7" fill="#534AB7" stroke="none" stroke-width="1" rx="2"/><text x="498.9" y="69.3" font-size="9" text-anchor="middle" fill="#222222" font-weight="400">0.91</text><text x="458.1" y="338.0" font-size="11" text-anchor="middle" fill="#222222" font-weight="400">Faithfulness</text><rect x="560.8" y="192.3" width="35.5" height="127.7" fill="#185FA5" stroke="none" stroke-width="1" rx="2"/><text x="578.6" y="187.3" font-size="9" text-anchor="middle" fill="#222222" font-weight="400">0.47</text><rect x="601.6" y="192.0" width="35.5" height="128.0" fill="#D85A30" stroke="none" stroke-width="1" rx="2"/><text x="619.4" y="187.0" font-size="9" text-anchor="middle" fill="#222222" font-weight="400">0.47</text><rect x="642.4" y="229.8" width="35.5" height="90.2" fill="#534AB7" stroke="none" stroke-width="1" rx="2"/><text x="660.2" y="224.8" font-size="9" text-anchor="middle" fill="#222222" font-weight="400">0.33</text><text x="619.4" y="338.0" font-size="11" text-anchor="middle" fill="#222222" font-weight="400">Answer correctness</text><rect x="55.0" y="374.0" width="12.0" height="10.0" fill="#185FA5" stroke="none" stroke-width="1" rx="0"/><text x="71.0" y="383.0" font-size="10" text-anchor="start" fill="#222222" font-weight="400">Basic</text><rect x="175.0" y="374.0" width="12.0" height="10.0" fill="#D85A30" stroke="none" stroke-width="1" rx="0"/><text x="191.0" y="383.0" font-size="10" text-anchor="start" fill="#222222" font-weight="400">Advanced v1</text><rect x="295.0" y="374.0" width="12.0" height="10.0" fill="#534AB7" stroke="none" stroke-width="1" rx="0"/><text x="311.0" y="383.0" font-size="10" text-anchor="start" fill="#222222" font-weight="400">Advanced v2</text><text x="20.0" y="398.0" font-size="10" text-anchor="start" fill="#666666" font-weight="400">Basic wins/ties 4 of 5 metrics; Advanced v2 (CRAG++) regresses on precision and AC.</text></svg>
